<?xml version="1.0" encoding="UTF-8"?>
<!-- Created with Inkscape (http://www.inkscape.org/) -->
<svg width="372" height="744" version="1.1" viewBox="0 0 372 744" xml:space="preserve" xmlns="http://www.w3.org/2000/svg"><g stroke-width="3"><path d="m124 383v46h-11v43h-10v33h-11v43h-11v43h-10v44h-11v43h-11v22h-10v29h294v-29h-10v-22h-11v-43h-11v-44h-10v-43h-11v-43h-11v-33h-10v-43h-11v-46h-18v3h-11v10h-10v11h-11v11h-24v-11h-11v-11h-10v-10h-11v-3zm8 10h13v11h10v11h11v11h11v14h-11v10h-11v11h-10v11h-11v11h-13v-46h11zm95 0h13v44h11v46h-13v-11h-11v-11h-10v-11h-11v-10h-11v-14h11v-11h11v-11h10zm-53 55h24v10h11v11h10v11h11v11h11v24h-22v22h-21v22h-24v-22h-21v-22h-22v-24h11v-11h11v-11h10v-11h11zm-74 86h34v22h22v11h10v24h-10v11h-22v22h-21v22h-21v21h-24v-14h11v-43h10v-44h11zm138 0h34v32h11v44h10v43h11v14h-24v-21h-21v-22h-21v-22h-22v-11h-10v-24h10v-11h22zm-64 65h24v22h20v22h23v21h21v21h21v14h-194v-14h21v-21h21v-21h23v-22h20zm-117 108h258v14h-258z"/><path d="m81 329v11h-10v20h10v10h10v10h179v-10h21v-10h10v-20h-10v-11zm15 15h5v5h4v4h4v-4h4v-5h5v7h-4v3h-5v2h5v3h4v7h-5v-6h-4v-3h-4v3h-4v6h-5v-7h4v-3h4v-2h-4v-3h-4zm24 0h21v4h-16v5h12v4h-12v5h16v4h-21zm27 0h14v3h4v4h-5v-3h-12v14h12v-3h5v4h-4v3h-14v-3h-4v-16h4zm20 0h5v18h11v-18h5v19h-4v3h-13v-3h-4zm23 0h23v4h-9v18h-5v-18h-9zm30 0h5v3h4v3h4v-3h4v-3h5v22h-5v-15h-3v3h-6v-3h-3v15h-5zm24 0h21v4h-16v5h12v4h-12v5h16v4h-21zm-31 18h5v4h-5z"/><path d="m166 212v33h-10v54h-11v27h19v-3h5v-5h5v-5h5v-6h14v6h5v5h5v5h5v3h19v-27h-11v-54h-10v-33zm-2 41h44v24h-6v5h-4v6h-5v5h-14v-5h-5v-6h-4v-5h-6zm0 33h6v6h5v5h5v6h-5v6h-5v5h-5v5h-5v1h-7v-13h11zm38 0h6v21h11v13h-7v-1h-5v-5h-5v-5h-5v-6h-5v-6h5v-5h5z"/></g><g stroke-width="3"><path d="m275 314v-8h10v-10h11v-22h10v-11h11v-22h11v-111h-11v-22h-11v-21h-10v-11h-11v-11h-10v-11h-11v-7h18v10h11v11h11v11h10v11h11v22h11v32h10v73h-10v32h-11v22h-11v11h-10v22h-11v10z"/><path d="m251 286v-8h11v-10h10v-22h11v-11h11v-49h10v-13h-10v-38h-11v-22h-11v-11h-10v-11h-11v-8h19v11h10v9h11v24h11v32h10v41h-10v43h-11v11h-11v22h-10v10z"/><path d="m234 243v-8h11v-22h10v-68h-10v-21h-11v-8h19v11h10v21h10v52h-10v21h-10v22z"/><path d="m138 243h-18v-11h-11v-22h-11v-61h11v-22h11v-11h18v8h-10v11h-11v32h-11v25h11v32h11v11h10z"/><path d="m121 84h-18v11h-11v10h-11v22h-11v22h-10v72h10v22h11v22h11v11h10v10h19v-8h-11v-10h-10v-11h-11v-22h-11v-100h11v-22h11v-10h11v-11h10z"/><path d="m108 47v7h-10v12h-11v10h-11v11h-10v11h-11v22h-10v43h-11v29h11v49h10v22h11v22h10v11h11v10h11v8h-19v-10h-11v-11h-10v-22h-11v-10h-10v-33h-11v-95h11v-21h10v-22h11v-11h11v-11h10v-10h11v-11z"/></g><path d="m177 17v141h-43v51h104v-51h-43v-141zm-24 149h35v16h-20v19h-15z" stroke-width="3"/></svg>
