<?xml version="1.0" encoding="UTF-8" standalone="no"?>
<!-- Created with Inkscape (http://www.inkscape.org/) -->

<svg
   version="1.1"
   id="svg1"
   width="372"
   height="744"
   viewBox="0 0 372 744"
   sodipodi:docname="tower_strokeless.svg"
   inkscape:version="1.4 (e7c3feb100, 2024-10-09)"
   xml:space="preserve"
   xmlns:inkscape="http://www.inkscape.org/namespaces/inkscape"
   xmlns:sodipodi="http://sodipodi.sourceforge.net/DTD/sodipodi-0.dtd"
   xmlns="http://www.w3.org/2000/svg"
   xmlns:svg="http://www.w3.org/2000/svg"><defs
     id="defs1" /><sodipodi:namedview
     id="namedview1"
     pagecolor="#000000"
     bordercolor="#999999"
     borderopacity="1"
     inkscape:showpageshadow="false"
     inkscape:pageopacity="0"
     inkscape:pagecheckerboard="true"
     inkscape:deskcolor="#d1d1d1"
     showgrid="true"
     showborder="true"
     labelstyle="default"
     inkscape:zoom="1.1854839"
     inkscape:cx="186"
     inkscape:cy="372"
     inkscape:window-width="1920"
     inkscape:window-height="1050"
     inkscape:window-x="0"
     inkscape:window-y="30"
     inkscape:window-maximized="1"
     inkscape:current-layer="svg1"
     inkscape:antialias-rendering="false"
     inkscape:clip-to-page="false"><inkscape:grid
       id="grid1"
       units="px"
       originx="0"
       originy="0"
       spacingx="1"
       spacingy="1"
       empcolor="#000000"
       empopacity="0.10196078"
       color="#000000"
       opacity="0.10196078"
       empspacing="12"
       enabled="true"
       visible="true" /></sodipodi:namedview><path
     id="path22"
     style="display:inline;fill:#000000;fill-opacity:1;stroke-width:3"
     d="m 124,383 v 46 h -11 v 43 h -10 v 33 H 92 v 43 H 81 v 43 H 71 v 44 H 60 v 43 H 49 v 22 H 39 v 29 h 294 v -29 h -10 v -22 h -11 v -43 h -11 v -44 h -10 v -43 h -11 v -43 h -11 v -33 h -10 v -43 h -11 v -46 h -18 v 3 h -11 v 10 h -10 v 11 h -11 v 11 h -24 v -11 h -11 v -11 h -10 v -10 h -11 v -3 z m 8,10 h 13 v 11 h 10 v 11 h 11 v 11 h 11 v 14 h -11 v 10 h -11 v 11 h -10 v 11 h -11 v 11 h -13 v -46 h 11 z m 95,0 h 13 v 44 h 11 v 46 h -13 v -11 h -11 v -11 h -10 v -11 h -11 v -10 h -11 v -14 h 11 v -11 h 11 v -11 h 10 z m -53,55 h 24 v 10 h 11 v 11 h 10 v 11 h 11 v 11 h 11 v 24 h -22 v 22 h -21 v 22 h -24 v -22 h -21 v -22 h -22 v -24 h 11 v -11 h 11 v -11 h 10 v -11 h 11 z m -74,86 h 34 v 22 h 22 v 11 h 10 v 24 h -10 v 11 h -22 v 22 h -21 v 22 H 92 v 21 H 68 v -14 h 11 v -43 h 10 v -44 h 11 z m 138,0 h 34 v 32 h 11 v 44 h 10 v 43 h 11 v 14 h -24 v -21 h -21 v -22 h -21 v -22 h -22 v -11 h -10 v -24 h 10 v -11 h 22 z m -64,65 h 24 v 22 h 20 v 22 h 23 v 21 h 21 v 21 h 21 v 14 H 89 v -14 h 21 v -21 h 21 v -21 h 23 v -22 h 20 z M 57,707 h 258 v 14 H 57 Z"
     inkscape:label="bottom" /><path
     id="path17"
     style="display:inline;fill:#000000;fill-opacity:1;stroke-width:3"
     inkscape:label="label"
     d="m 81,329 v 11 H 71 v 20 h 10 v 10 h 10 v 10 h 179 v -10 h 21 v -10 h 10 v -20 h -10 v -11 z m 15,15 h 5 v 5 h 4 v 4 h 4 v -4 h 4 v -5 h 5 v 7 h -4 v 3 h -5 v 2 h 5 v 3 h 4 v 7 h -5 v -6 h -4 v -3 h -4 v 3 h -4 v 6 h -5 v -7 h 4 v -3 h 4 v -2 h -4 v -3 h -4 z m 24,0 h 21 v 4 h -16 v 5 h 12 v 4 h -12 v 5 h 16 v 4 h -21 z m 27,0 h 14 v 3 h 4 v 4 h -5 v -3 h -12 v 14 h 12 v -3 h 5 v 4 h -4 v 3 h -14 v -3 h -4 v -16 h 4 z m 20,0 h 5 v 18 h 11 v -18 h 5 v 19 h -4 v 3 h -13 v -3 h -4 z m 23,0 h 23 v 4 h -9 v 18 h -5 v -18 h -9 z m 30,0 h 5 v 3 h 4 v 3 h 4 v -3 h 4 v -3 h 5 v 22 h -5 v -15 h -3 v 3 h -6 v -3 h -3 v 15 h -5 z m 24,0 h 21 v 4 h -16 v 5 h 12 v 4 h -12 v 5 h 16 v 4 h -21 z m -31,18 h 5 v 4 h -5 z" /><path
     id="path19"
     style="display:inline;fill:#000000;fill-opacity:1;stroke-width:3"
     d="m 166,212 v 33 h -10 v 54 h -11 v 27 h 19 v -3 h 5 v -5 h 5 v -5 h 5 v -6 h 14 v 6 h 5 v 5 h 5 v 5 h 5 v 3 h 19 v -27 h -11 v -54 h -10 v -33 z m -2,41 h 44 v 24 h -6 v 5 h -4 v 6 h -5 v 5 h -14 v -5 h -5 v -6 h -4 v -5 h -6 z m 0,33 h 6 v 6 h 5 v 5 h 5 v 6 h -5 v 6 h -5 v 5 h -5 v 5 h -5 v 1 h -7 v -13 h 11 z m 38,0 h 6 v 21 h 11 v 13 h -7 v -1 h -5 v -5 h -5 v -5 h -5 v -6 h -5 v -6 h 5 v -5 h 5 z"
     inkscape:label="top" /><g
     inkscape:groupmode="layer"
     id="layer2"
     inkscape:label="waves"><path
       style="fill:#000000;fill-opacity:1;stroke-width:3"
       d="m 275,314 v -8 h 10 v -10 h 11 v -22 h 10 v -11 h 11 v -22 h 11 V 130 H 317 V 108 H 306 V 87 H 296 V 76 H 285 V 65 H 275 V 54 h -11 v -7 h 18 v 10 h 11 v 11 h 11 v 11 h 10 v 11 h 11 v 22 h 11 v 32 h 10 v 73 h -10 v 32 h -11 v 22 h -11 v 11 h -10 v 22 h -11 v 10 z"
       id="path7"
       inkscape:label=")))" /><path
       style="fill:#000000;fill-opacity:1;stroke-width:3"
       d="m 251,286 v -8 h 11 v -10 h 10 v -22 h 11 v -11 h 11 v -49 h 10 V 173 H 294 V 135 H 283 V 113 H 272 V 102 H 262 V 91 h -11 v -8 h 19 v 11 h 10 v 9 h 11 v 24 h 11 v 32 h 10 v 41 h -10 v 43 h -11 v 11 h -11 v 22 h -10 v 10 z"
       id="path6"
       inkscape:label="))" /><path
       style="fill:#000000;fill-opacity:1;stroke-width:3"
       d="m 234,243 v -8 h 11 v -22 h 10 v -68 h -10 v -21 h -11 v -8 h 19 v 11 h 10 v 21 h 10 v 52 h -10 v 21 h -10 v 22 z"
       id="path5"
       inkscape:label=")" /><path
       style="fill:#000000;fill-opacity:1;stroke-width:3"
       d="M 138,243 H 120 V 232 H 109 V 210 H 98 v -61 h 11 v -22 h 11 v -11 h 18 v 8 h -10 v 11 h -11 v 32 h -11 v 25 h 11 v 32 h 11 v 11 h 10 z"
       id="path4"
       inkscape:label="(" /><path
       style="fill:#000000;fill-opacity:1;stroke-width:3"
       d="M 121,84 H 103 V 95 H 92 v 10 H 81 v 22 H 70 v 22 H 60 v 72 h 10 v 22 h 11 v 22 h 11 v 11 h 10 v 10 h 19 v -8 H 110 V 268 H 100 V 257 H 89 V 235 H 78 V 135 h 11 v -22 h 11 v -10 h 11 V 92 h 10 z"
       id="path3"
       inkscape:label="((" /><path
       style="fill:#000000;fill-opacity:1;stroke-width:3"
       d="m 108,47 v 7 H 98 V 66 H 87 V 76 H 76 V 87 H 66 V 98 H 55 v 22 H 45 v 43 H 34 v 29 h 11 v 49 h 10 v 22 h 11 v 22 h 10 v 11 h 11 v 10 h 11 v 8 H 79 V 304 H 68 V 293 H 58 V 271 H 47 V 261 H 37 V 228 H 26 V 133 H 37 V 112 H 47 V 90 H 58 V 79 H 69 V 68 H 79 V 58 H 90 V 47 Z"
       id="path2"
       sodipodi:nodetypes="ccccccccccccccccccccccccccccccccccccccccccccccccccccc"
       inkscape:label="(((" /></g><path
     id="path18"
     style="display:inline;fill:#000000;fill-opacity:1;stroke-width:3"
     d="m 177,17 v 141 h -43 v 51 H 238 V 158 H 195 V 17 Z m -24,149 h 35 v 16 h -20 v 19 h -15 z"
     inkscape:label="emitter" /></svg>
